<?xml version="1.0" encoding="UTF-8"?>
<svg id="Layer_2" data-name="Layer 2" xmlns="http://www.w3.org/2000/svg" viewBox="0 0 168.26 188.58">
  <defs>
    <style>
      .cls-1 {
        fill: #079e67;
      }

      .cls-1, .cls-2, .cls-3 {
        fill-rule: evenodd;
      }

      .cls-2 {
        fill: #10b981;
      }
    </style>
  </defs>
  <g id="OBJECTS">
    <path class="cls-2" d="M.6,25.53s-13.16,118.87,83.33,163.05c0,0,83.54-23,83.54-159.71,0,0-69.77-41.66-166.87-3.34Z"/>
    <path class="cls-2" d="M82.29,188.01c-.54-.19-13.23-4.65-22.21-10.5-15.76-10.26-28.81-26.24-39.9-48.85l-2.07-4.23,4.09-2.32c1.77-1,3.74-2.16,5.85-3.4,13.78-8.07,32.65-19.12,46.22-19.12,1.61,0,3.14,.15,4.55,.46,11.95,2.58,20.41,6.39,27.21,9.45,6.44,2.9,11.1,5,16.03,5h.28c5.71-.1,12.83-4.03,18-7.57l-35.91-20.68,2.49-4.33c.49-.88,2.82-5.58-.9-8.15-7.23-5-18.29-9.61-18.4-9.66l-2.71-1.12-.34-2.92c-.26-2.26-2.04-17.67-2.92-27.5-3.65,10.33-17.88,31.25-18.49,32.13l-1.07,1.57-1.84,.46c-15.62,3.93-33.62,8.67-49.61,15.25l-5.75,2.37-1.08-6.12C.71,60.71-.5,43.18,.4,28.87l.21-3.34,3.17-1.08c18.75-6.4,44.98-14.02,63.42-14.02l1.44,6.09c3.82-5.71,7.27-10.45,9.25-12.26,3.14-2.86,6.08-4.25,8.97-4.25,8.54,0,10.59,10.83,11.27,14.39,.24,1.27,.48,2.59,.7,3.92l1.86-7.89c18.44,0,44.66,7.63,63.42,14.02l3.17,1.08,.21,3.34c.07,1.15,1.67,28.49-5.52,59.87l-1.46,6.38-6.96-3.72c3.75,2.13,6.59,3.68,7.71,4.15,3.53,1.49,5.92,4.21,6.72,7.64,.76,3.24,.42,8.53-5.48,15.38-4.61,5.35-15.34,14.38-28.61,18.21l6.5,5.36c-14.12,23.36-28.01,32.41-32.57,35.38-8.98,5.85-21.68,10.31-22.21,10.5l-1.65,.58-1.65-.58Zm-10.69-35.49c5.66,5.2,10.48,8.64,13,10.31,23.84-8.35,40.45-20.71,46.06-25.24-2.92,.63-5.94,.99-9.04,.99-3.41,0-6.78-.43-10.04-1.29-6.87-1.8-11.96-2.64-16.03-2.64-6.31,0-9.79,1.99-15.21,6.45-1.11,.91-3.64,3.59-8.74,11.42Zm55.81-76.47c2.15,1.29,4.47,2.67,6.87,4.1l.63-2.85c4.66-21.16,5.09-31.18,5.02-34.81-7.73-6.08-14.23-9.71-21.25-13.09,1.11,2.62,1.67,6.07,1.57,9.98-.15,6.04-2.25,14.71-3.52,19.48,2.64,1.9,6.28,4.54,7.51,5.56,.92,.77,3.22,2.69,3.18,11.63ZM27.95,42.49c-.03,1.63,.03,4.54,.54,9.15,13.26-4.2,19.64-6.14,22.46-6.97,2.72-4.53,8.42-13.92,14.02-22.6-2.87,1.37-5.57,2.61-8.21,3.82-10.22,4.68-18.39,8.42-28.81,16.6ZM99.14,20.24c.68,4.24,1.28,8.55,1.74,12.18,3.17-2.73,5.78-5.05,6.5-5.85,.46-.66,1.04-1.21,1.7-1.62-3.13-1.44-6.38-2.95-9.94-4.71Z"/>
    <path class="cls-3" d="M100.68,15.42c17.99,0,44.47,7.84,61.8,13.76,0,0,1.71,27.41-5.4,58.44l-17.3-9.25c6.63-30.09,4.97-38.43,4.97-38.43-15.92-12.94-26.87-15.93-44.06-24.52h0ZM5.39,29.18c17.34-5.91,43.82-13.76,61.8-13.76-17.19,8.59-28.14,11.58-44.06,24.52,0,0-.88,4.41,1.19,18.4,1.79-.66,3.59-1.28,5.39-1.85,20.14-6.38,24.52-7.58,24.52-7.58,0,0,21.43-35.89,27.01-40.97,5.58-5.08,9.77-4.19,11.96,7.38,2.19,11.56,3.79,26.91,3.79,26.91,0,0,13.46-11.16,14.45-12.76,1-1.6,3.99,1.79,3.79,9.77-.2,7.97-4.29,21.63-4.29,21.63,0,0,8.27,5.88,10.07,7.38,1.79,1.5,1.3,10.57,1.3,10.57,0,0,31.8,19.14,36.98,21.33,5.18,2.19,5.58,7.98-.6,15.15-6.18,7.18-25.32,22.53-45.85,17.14-20.53-5.38-26.72-2.59-35.69,4.78-3,2.47-7.43,8.77-11.99,16.07,10.28,10.1,18.77,15.03,18.77,15.03,32.14-10.71,51.96-28.61,52.15-28.79-12.52,20.71-24.64,29.62-31.02,33.77-8.57,5.58-21.13,9.97-21.13,9.97,0,0-12.56-4.39-21.13-9.97-17.19-11.19-29.21-28.64-38.14-46.86,13.71-7.78,39.39-24.47,53.09-21.52,23.13,4.98,32.5,14.75,44.66,14.55,12.16-.2,26.91-13.16,26.91-13.16l-38.08-21.93s5.38-9.37-2.39-14.75c-7.78-5.38-19.34-10.17-19.34-10.17,0,0-3.39-29.31-3.39-34.29s-5.78-4.19-9.17,5.58c-3.39,9.77-17.94,31.1-17.94,31.1-16.6,4.17-34.34,8.91-50.3,15.48-2.71-15.39-4.27-33.1-3.33-48.18h0Z"/>
    <path class="cls-2" d="M139.09,144.21s7.88-12.1,8.8-16.09c.9-3.88-10.73,5.77-10.73,5.77l1.93,10.32Z"/>
    <path class="cls-1" d="M102.53,16.24l58.38,14.54s-1.62,42.69-5.77,52.38l-15.37-4.64-3.32-38.51-33.92-23.77Z"/>
    <polygon class="cls-1" points="147.7 108.49 105.12 85.02 126.41 86.68 154.32 101.07 147.7 108.49"/>
    <polygon class="cls-1" points="8.68 81.04 62.08 66.26 88.68 16.24 76.91 18.66 53.37 57.09 7.91 72.63 8.68 81.04"/>
    <path class="cls-1" d="M59.61,135.7s15.01,21.41,24.98,27.13l51.5-23.13-51.9,39.59-39.81-28.04"/>
    <polygon class="cls-1" points="67.19 15.57 27.95 42.49 22.57 68.16 10.45 32.42 67.19 15.57"/>
    <path class="cls-3" d="M100.68,15.57c17.99,0,44.47,7.84,61.8,13.76,0,0,1.71,27.41-5.4,58.44l-17.3-9.25c6.63-30.09,4.97-38.43,4.97-38.43-15.92-12.94-26.87-15.93-44.06-24.52h0ZM5.39,29.33c17.34-5.91,43.82-13.76,61.8-13.76-17.19,8.59-28.14,11.58-44.06,24.52,0,0-.88,4.41,1.19,18.4,1.79-.66,3.59-1.28,5.39-1.85,20.14-6.38,24.52-7.58,24.52-7.58,0,0,21.43-35.89,27.01-40.97,5.58-5.08,9.77-4.19,11.96,7.38,2.19,11.56,3.79,26.91,3.79,26.91,0,0,13.46-11.16,14.45-12.76,1-1.6,3.99,1.79,3.79,9.77-.2,7.97-4.29,21.63-4.29,21.63,0,0,8.27,5.88,10.07,7.38,1.79,1.5,1.3,10.57,1.3,10.57,0,0,31.8,19.14,36.98,21.33,5.18,2.19,5.58,7.98-.6,15.15-6.18,7.18-25.32,22.53-45.85,17.14-20.53-5.38-26.72-2.59-35.69,4.78-3,2.47-7.43,8.77-12,16.07,10.28,10.1,18.77,15.03,18.77,15.03,32.14-10.71,51.96-28.61,52.15-28.79-12.52,20.71-24.64,29.62-31.02,33.77-8.57,5.58-21.13,9.97-21.13,9.97,0,0-12.56-4.39-21.13-9.97-17.19-11.19-29.21-28.64-38.14-46.86,13.71-7.78,39.39-24.47,53.09-21.52,23.13,4.98,32.5,14.75,44.66,14.55,12.16-.2,26.91-13.16,26.91-13.16l-38.08-21.93s5.38-9.37-2.39-14.75c-7.78-5.38-19.34-10.17-19.34-10.17,0,0-3.39-29.31-3.39-34.29s-5.78-4.19-9.17,5.58c-3.39,9.77-17.94,31.1-17.94,31.1-16.6,4.17-34.34,8.91-50.3,15.48-2.71-15.39-4.27-33.1-3.33-48.18h0Z"/>
    <path class="cls-3" d="M119.4,82.87l-22.15-11.77s9.26,27.26,7.18,15.14l17.39,1.53"/>
  </g>
</svg>